<mxfile host="app.diagrams.net" modified="2023-04-26T12:27:25.677Z" agent="Mozilla/5.0 (Windows NT 10.0; Win64; x64) AppleWebKit/537.36 (KHTML, like Gecko) Chrome/112.0.0.0 Safari/537.36" etag="LroddI-H26CxcRf4VOBt" version="21.2.2" type="device">
  <diagram name="Page-1" id="Bmhc_8wffsxF19qoAmWM">
    <mxGraphModel dx="1247" dy="677" grid="1" gridSize="10" guides="1" tooltips="1" connect="1" arrows="1" fold="1" page="1" pageScale="1" pageWidth="850" pageHeight="1100" math="0" shadow="0">
      <root>
        <mxCell id="0" />
        <mxCell id="1" parent="0" />
        <mxCell id="f6OdeNXOp-k4hMEVw0t0-6" style="edgeStyle=orthogonalEdgeStyle;rounded=0;orthogonalLoop=1;jettySize=auto;html=1;entryX=0.5;entryY=1;entryDx=0;entryDy=0;" edge="1" parent="1" source="f6OdeNXOp-k4hMEVw0t0-1" target="f6OdeNXOp-k4hMEVw0t0-4">
          <mxGeometry relative="1" as="geometry" />
        </mxCell>
        <mxCell id="f6OdeNXOp-k4hMEVw0t0-30" style="edgeStyle=orthogonalEdgeStyle;rounded=0;orthogonalLoop=1;jettySize=auto;html=1;entryX=0.75;entryY=0;entryDx=0;entryDy=0;shape=link;" edge="1" parent="1" source="f6OdeNXOp-k4hMEVw0t0-1" target="f6OdeNXOp-k4hMEVw0t0-9">
          <mxGeometry relative="1" as="geometry" />
        </mxCell>
        <mxCell id="f6OdeNXOp-k4hMEVw0t0-1" value="Home" style="html=1;whiteSpace=wrap;" vertex="1" parent="1">
          <mxGeometry x="445" y="190" width="110" height="50" as="geometry" />
        </mxCell>
        <mxCell id="f6OdeNXOp-k4hMEVw0t0-2" value="Components UML" style="text;html=1;strokeColor=none;fillColor=none;align=center;verticalAlign=middle;whiteSpace=wrap;rounded=0;fontSize=15;fontStyle=1" vertex="1" parent="1">
          <mxGeometry x="310" y="20" width="190" height="40" as="geometry" />
        </mxCell>
        <mxCell id="f6OdeNXOp-k4hMEVw0t0-3" value="&lt;b&gt;NEXT.js COMPONENT:&lt;br&gt;&lt;/b&gt;layout" style="rounded=0;whiteSpace=wrap;html=1;" vertex="1" parent="1">
          <mxGeometry x="210" y="80" width="180" height="65" as="geometry" />
        </mxCell>
        <mxCell id="f6OdeNXOp-k4hMEVw0t0-4" value="&lt;b&gt;NEXT.js&lt;/b&gt;" style="rounded=0;whiteSpace=wrap;html=1;" vertex="1" parent="1">
          <mxGeometry x="410" y="80" width="180" height="65" as="geometry" />
        </mxCell>
        <mxCell id="f6OdeNXOp-k4hMEVw0t0-8" style="edgeStyle=orthogonalEdgeStyle;rounded=0;orthogonalLoop=1;jettySize=auto;html=1;entryX=0.5;entryY=1;entryDx=0;entryDy=0;" edge="1" parent="1" source="f6OdeNXOp-k4hMEVw0t0-7" target="f6OdeNXOp-k4hMEVw0t0-3">
          <mxGeometry relative="1" as="geometry" />
        </mxCell>
        <mxCell id="f6OdeNXOp-k4hMEVw0t0-7" value="Navbar" style="html=1;whiteSpace=wrap;" vertex="1" parent="1">
          <mxGeometry x="245" y="190" width="110" height="50" as="geometry" />
        </mxCell>
        <mxCell id="f6OdeNXOp-k4hMEVw0t0-10" style="edgeStyle=orthogonalEdgeStyle;rounded=0;orthogonalLoop=1;jettySize=auto;html=1;entryX=0.25;entryY=1;entryDx=0;entryDy=0;" edge="1" parent="1" source="f6OdeNXOp-k4hMEVw0t0-9" target="f6OdeNXOp-k4hMEVw0t0-4">
          <mxGeometry relative="1" as="geometry">
            <Array as="points">
              <mxPoint x="425" y="180" />
              <mxPoint x="455" y="180" />
            </Array>
          </mxGeometry>
        </mxCell>
        <mxCell id="f6OdeNXOp-k4hMEVw0t0-31" style="edgeStyle=orthogonalEdgeStyle;rounded=0;orthogonalLoop=1;jettySize=auto;html=1;entryX=0;entryY=0.5;entryDx=0;entryDy=0;shape=link;" edge="1" parent="1" source="f6OdeNXOp-k4hMEVw0t0-9" target="f6OdeNXOp-k4hMEVw0t0-29">
          <mxGeometry relative="1" as="geometry" />
        </mxCell>
        <mxCell id="f6OdeNXOp-k4hMEVw0t0-9" value="Dasboard" style="rounded=0;whiteSpace=wrap;html=1;" vertex="1" parent="1">
          <mxGeometry x="365" y="270" width="120" height="60" as="geometry" />
        </mxCell>
        <mxCell id="f6OdeNXOp-k4hMEVw0t0-15" style="edgeStyle=orthogonalEdgeStyle;rounded=0;orthogonalLoop=1;jettySize=auto;html=1;entryX=0.5;entryY=1;entryDx=0;entryDy=0;" edge="1" parent="1" source="f6OdeNXOp-k4hMEVw0t0-11" target="f6OdeNXOp-k4hMEVw0t0-9">
          <mxGeometry relative="1" as="geometry">
            <Array as="points">
              <mxPoint x="270" y="370" />
              <mxPoint x="425" y="370" />
            </Array>
          </mxGeometry>
        </mxCell>
        <mxCell id="f6OdeNXOp-k4hMEVw0t0-11" value="DashBox" style="swimlane;fontStyle=0;childLayout=stackLayout;horizontal=1;startSize=26;fillColor=none;horizontalStack=0;resizeParent=1;resizeParentMax=0;resizeLast=0;collapsible=1;marginBottom=0;whiteSpace=wrap;html=1;" vertex="1" parent="1">
          <mxGeometry x="200" y="390" width="140" height="130" as="geometry" />
        </mxCell>
        <mxCell id="f6OdeNXOp-k4hMEVw0t0-12" value="+&amp;nbsp;text&lt;span style=&quot;background-color: initial;&quot;&gt;: string&lt;/span&gt;" style="text;strokeColor=none;fillColor=none;align=left;verticalAlign=top;spacingLeft=4;spacingRight=4;overflow=hidden;rotatable=0;points=[[0,0.5],[1,0.5]];portConstraint=eastwest;whiteSpace=wrap;html=1;" vertex="1" parent="f6OdeNXOp-k4hMEVw0t0-11">
          <mxGeometry y="26" width="140" height="26" as="geometry" />
        </mxCell>
        <mxCell id="f6OdeNXOp-k4hMEVw0t0-13" value="+&amp;nbsp;link&lt;span style=&quot;background-color: initial;&quot;&gt;: string&lt;/span&gt;" style="text;strokeColor=none;fillColor=none;align=left;verticalAlign=top;spacingLeft=4;spacingRight=4;overflow=hidden;rotatable=0;points=[[0,0.5],[1,0.5]];portConstraint=eastwest;whiteSpace=wrap;html=1;" vertex="1" parent="f6OdeNXOp-k4hMEVw0t0-11">
          <mxGeometry y="52" width="140" height="26" as="geometry" />
        </mxCell>
        <mxCell id="f6OdeNXOp-k4hMEVw0t0-14" value="+&amp;nbsp;color1&lt;span style=&quot;background-color: initial;&quot;&gt;: string&lt;/span&gt;" style="text;strokeColor=none;fillColor=none;align=left;verticalAlign=top;spacingLeft=4;spacingRight=4;overflow=hidden;rotatable=0;points=[[0,0.5],[1,0.5]];portConstraint=eastwest;whiteSpace=wrap;html=1;" vertex="1" parent="f6OdeNXOp-k4hMEVw0t0-11">
          <mxGeometry y="78" width="140" height="26" as="geometry" />
        </mxCell>
        <mxCell id="f6OdeNXOp-k4hMEVw0t0-16" value="+&amp;nbsp;color2&lt;span style=&quot;background-color: initial;&quot;&gt;: string&lt;/span&gt;" style="text;strokeColor=none;fillColor=none;align=left;verticalAlign=top;spacingLeft=4;spacingRight=4;overflow=hidden;rotatable=0;points=[[0,0.5],[1,0.5]];portConstraint=eastwest;whiteSpace=wrap;html=1;" vertex="1" parent="f6OdeNXOp-k4hMEVw0t0-11">
          <mxGeometry y="104" width="140" height="26" as="geometry" />
        </mxCell>
        <mxCell id="f6OdeNXOp-k4hMEVw0t0-22" style="edgeStyle=orthogonalEdgeStyle;rounded=0;orthogonalLoop=1;jettySize=auto;html=1;entryX=0.5;entryY=1;entryDx=0;entryDy=0;" edge="1" parent="1" source="f6OdeNXOp-k4hMEVw0t0-17" target="f6OdeNXOp-k4hMEVw0t0-9">
          <mxGeometry relative="1" as="geometry" />
        </mxCell>
        <mxCell id="f6OdeNXOp-k4hMEVw0t0-17" value="QuickRun" style="swimlane;fontStyle=0;childLayout=stackLayout;horizontal=1;startSize=26;fillColor=none;horizontalStack=0;resizeParent=1;resizeParentMax=0;resizeLast=0;collapsible=1;marginBottom=0;whiteSpace=wrap;html=1;" vertex="1" parent="1">
          <mxGeometry x="355" y="390" width="140" height="78" as="geometry" />
        </mxCell>
        <mxCell id="f6OdeNXOp-k4hMEVw0t0-18" value="+&amp;nbsp;onClick&lt;span style=&quot;background-color: initial;&quot;&gt;: function&lt;/span&gt;" style="text;strokeColor=none;fillColor=none;align=left;verticalAlign=top;spacingLeft=4;spacingRight=4;overflow=hidden;rotatable=0;points=[[0,0.5],[1,0.5]];portConstraint=eastwest;whiteSpace=wrap;html=1;" vertex="1" parent="f6OdeNXOp-k4hMEVw0t0-17">
          <mxGeometry y="26" width="140" height="26" as="geometry" />
        </mxCell>
        <mxCell id="f6OdeNXOp-k4hMEVw0t0-23" value="+&amp;nbsp;isDark&lt;span style=&quot;background-color: initial;&quot;&gt;: bool&lt;/span&gt;" style="text;strokeColor=none;fillColor=none;align=left;verticalAlign=top;spacingLeft=4;spacingRight=4;overflow=hidden;rotatable=0;points=[[0,0.5],[1,0.5]];portConstraint=eastwest;whiteSpace=wrap;html=1;" vertex="1" parent="f6OdeNXOp-k4hMEVw0t0-17">
          <mxGeometry y="52" width="140" height="26" as="geometry" />
        </mxCell>
        <mxCell id="f6OdeNXOp-k4hMEVw0t0-28" style="edgeStyle=orthogonalEdgeStyle;rounded=0;orthogonalLoop=1;jettySize=auto;html=1;entryX=0.5;entryY=1;entryDx=0;entryDy=0;" edge="1" parent="1" source="f6OdeNXOp-k4hMEVw0t0-25" target="f6OdeNXOp-k4hMEVw0t0-9">
          <mxGeometry relative="1" as="geometry">
            <Array as="points">
              <mxPoint x="580" y="370" />
              <mxPoint x="425" y="370" />
            </Array>
          </mxGeometry>
        </mxCell>
        <mxCell id="f6OdeNXOp-k4hMEVw0t0-33" style="edgeStyle=orthogonalEdgeStyle;rounded=0;orthogonalLoop=1;jettySize=auto;html=1;entryX=0.5;entryY=1;entryDx=0;entryDy=0;" edge="1" parent="1" source="f6OdeNXOp-k4hMEVw0t0-25" target="f6OdeNXOp-k4hMEVw0t0-29">
          <mxGeometry relative="1" as="geometry" />
        </mxCell>
        <mxCell id="f6OdeNXOp-k4hMEVw0t0-25" value="Result" style="swimlane;fontStyle=0;childLayout=stackLayout;horizontal=1;startSize=26;fillColor=none;horizontalStack=0;resizeParent=1;resizeParentMax=0;resizeLast=0;collapsible=1;marginBottom=0;whiteSpace=wrap;html=1;" vertex="1" parent="1">
          <mxGeometry x="510" y="390" width="140" height="78" as="geometry" />
        </mxCell>
        <mxCell id="f6OdeNXOp-k4hMEVw0t0-26" value="+ result&lt;span style=&quot;background-color: initial;&quot;&gt;: number&lt;/span&gt;" style="text;strokeColor=none;fillColor=none;align=left;verticalAlign=top;spacingLeft=4;spacingRight=4;overflow=hidden;rotatable=0;points=[[0,0.5],[1,0.5]];portConstraint=eastwest;whiteSpace=wrap;html=1;" vertex="1" parent="f6OdeNXOp-k4hMEVw0t0-25">
          <mxGeometry y="26" width="140" height="26" as="geometry" />
        </mxCell>
        <mxCell id="f6OdeNXOp-k4hMEVw0t0-27" value="+&amp;nbsp;reliabilities&lt;span style=&quot;background-color: initial;&quot;&gt;: object&lt;/span&gt;" style="text;strokeColor=none;fillColor=none;align=left;verticalAlign=top;spacingLeft=4;spacingRight=4;overflow=hidden;rotatable=0;points=[[0,0.5],[1,0.5]];portConstraint=eastwest;whiteSpace=wrap;html=1;" vertex="1" parent="f6OdeNXOp-k4hMEVw0t0-25">
          <mxGeometry y="52" width="140" height="26" as="geometry" />
        </mxCell>
        <mxCell id="f6OdeNXOp-k4hMEVw0t0-32" style="edgeStyle=orthogonalEdgeStyle;rounded=0;orthogonalLoop=1;jettySize=auto;html=1;entryX=0.75;entryY=1;entryDx=0;entryDy=0;" edge="1" parent="1" source="f6OdeNXOp-k4hMEVw0t0-29" target="f6OdeNXOp-k4hMEVw0t0-4">
          <mxGeometry relative="1" as="geometry">
            <Array as="points">
              <mxPoint x="580" y="180" />
              <mxPoint x="545" y="180" />
            </Array>
          </mxGeometry>
        </mxCell>
        <mxCell id="f6OdeNXOp-k4hMEVw0t0-29" value="Playground" style="rounded=0;whiteSpace=wrap;html=1;" vertex="1" parent="1">
          <mxGeometry x="520" y="270" width="120" height="60" as="geometry" />
        </mxCell>
      </root>
    </mxGraphModel>
  </diagram>
</mxfile>
